<svg width="20" height="20" viewBox="0 0 20 20" fill="none" xmlns="http://www.w3.org/2000/svg">
<g clip-path="url(#clip0_1_9)">
<path d="M12.6 2.19999C14.4 1.69999 15.8 2.49999 16.4 3.39999C17.1 3.19999 17.8 2.89999 18.5 2.69999C18.5 3.59999 17.9 4.19999 17.6 4.49999C18.3 4.59999 19 3.89999 19 3.89999C18.8 4.89999 17.9 5.7 17.3 5.9C17.1 12.7 14 17.1 6.7 17C6.1 17 6.8 17 6.2 17C5.8 17 1.8 16.5 1 15.1C3.4 15.3 5.1 14.7 6 13.9C5 13.6 3.1 13.5 2.8 11C3.2 11.1 3.4 11.2 4.1 11.1C2.8 10.3 1.4 9.49999 1.5 7.29999C1.8 7.59999 2.6 7.79999 2.9 7.79999C2.1 7.59999 0.8 4.49999 1.9 2.89999C3.8 4.79999 5.9 6.49999 9.5 6.69999C9.7 4.29999 10.7 2.79999 12.6 2.19999Z" fill="#83B3D3"/>
</g>
<defs>
<clipPath id="clip0_1_9">
<rect width="18" height="15" fill="white" transform="translate(1 2)"/>
</clipPath>
</defs>
</svg>
